<svg width="101" height="17" viewBox="0 0 101 17" fill="none" xmlns="http://www.w3.org/2000/svg">
<path d="M29.0006 13.9463C27.8806 13.9463 26.8992 13.701 26.0566 13.2103C25.2246 12.7196 24.5686 12.0423 24.0886 11.1783C23.6192 10.3036 23.3846 9.29564 23.3846 8.1543C23.3846 7.01297 23.6192 6.0103 24.0886 5.1463C24.5686 4.27164 25.2246 3.58897 26.0566 3.0983C26.8992 2.60764 27.8806 2.3623 29.0006 2.3623C30.1099 2.3623 31.0859 2.60764 31.9286 3.0983C32.7712 3.58897 33.4272 4.27164 33.8966 5.1463C34.3659 6.0103 34.6006 7.01297 34.6006 8.1543C34.6006 9.29564 34.3659 10.3036 33.8966 11.1783C33.4272 12.0423 32.7712 12.7196 31.9286 13.2103C31.0859 13.701 30.1099 13.9463 29.0006 13.9463ZM29.0006 12.1063C30.0672 12.1063 30.9152 11.7543 31.5446 11.0503C32.1846 10.3463 32.5046 9.38097 32.5046 8.1543C32.5046 6.92764 32.1846 5.9623 31.5446 5.2583C30.9152 4.5543 30.0672 4.2023 29.0006 4.2023C27.9339 4.2023 27.0806 4.5543 26.4406 5.2583C25.8006 5.9623 25.4806 6.92764 25.4806 8.1543C25.4806 9.38097 25.8006 10.3463 26.4406 11.0503C27.0806 11.7543 27.9339 12.1063 29.0006 12.1063ZM36.0408 13.7543V5.8183H37.8488L38.0088 7.1623C38.2541 6.69297 38.6061 6.31964 39.0648 6.0423C39.5341 5.76497 40.0835 5.6263 40.7128 5.6263C41.6941 5.6263 42.4568 5.93564 43.0008 6.5543C43.5448 7.17297 43.8168 8.07964 43.8168 9.2743V13.7543H41.7688V9.4663C41.7688 8.78364 41.6301 8.26097 41.3528 7.8983C41.0755 7.53564 40.6435 7.3543 40.0568 7.3543C39.4808 7.3543 39.0061 7.55697 38.6328 7.9623C38.2701 8.36764 38.0888 8.93297 38.0888 9.6583V13.7543H36.0408ZM52.4837 13.7543C51.6517 13.7543 50.985 13.5516 50.4837 13.1463C49.9823 12.741 49.7317 12.021 49.7317 10.9863V7.5303H48.3717V5.8183H49.7317L49.9717 3.6903H51.7797V5.8183H53.9237V7.5303H51.7797V11.0023C51.7797 11.3863 51.8597 11.653 52.0197 11.8023C52.1903 11.941 52.4783 12.0103 52.8837 12.0103H53.8757V13.7543H52.4837ZM55.3621 13.7543V5.8183H57.1861L57.3781 7.3063C57.6661 6.7943 58.0554 6.38897 58.5461 6.0903C59.0474 5.78097 59.6341 5.6263 60.3061 5.6263V7.7863H59.7301C59.2821 7.7863 58.8821 7.85564 58.5301 7.9943C58.1781 8.13297 57.9007 8.37297 57.6981 8.7143C57.5061 9.05564 57.4101 9.5303 57.4101 10.1383V13.7543H55.3621ZM64.1218 13.9463C63.4391 13.9463 62.8791 13.8396 62.4418 13.6263C62.0045 13.4023 61.6791 13.109 61.4658 12.7463C61.2525 12.3836 61.1458 11.9836 61.1458 11.5463C61.1458 10.8103 61.4338 10.213 62.0098 9.7543C62.5858 9.29564 63.4498 9.0663 64.6018 9.0663H66.6178V8.8743C66.6178 8.3303 66.4631 7.9303 66.1538 7.6743C65.8445 7.4183 65.4605 7.2903 65.0018 7.2903C64.5858 7.2903 64.2231 7.39164 63.9138 7.5943C63.6045 7.7863 63.4125 8.0743 63.3378 8.4583H61.3378C61.3911 7.8823 61.5831 7.38097 61.9138 6.9543C62.2551 6.52764 62.6925 6.2023 63.2258 5.9783C63.7591 5.74364 64.3565 5.6263 65.0178 5.6263C66.1485 5.6263 67.0391 5.90897 67.6898 6.4743C68.3405 7.03964 68.6658 7.83964 68.6658 8.8743V13.7543H66.9218L66.7298 12.4743C66.4951 12.901 66.1645 13.253 65.7378 13.5303C65.3218 13.8076 64.7831 13.9463 64.1218 13.9463ZM64.5858 12.3463C65.1725 12.3463 65.6258 12.1543 65.9458 11.7703C66.2765 11.3863 66.4845 10.9116 66.5698 10.3463H64.8258C64.2818 10.3463 63.8925 10.4476 63.6578 10.6503C63.4231 10.8423 63.3058 11.0823 63.3058 11.3703C63.3058 11.6796 63.4231 11.9196 63.6578 12.0903C63.8925 12.261 64.2018 12.3463 64.5858 12.3463ZM74.1882 13.9463C73.3775 13.9463 72.6628 13.7703 72.0442 13.4183C71.4255 13.0663 70.9348 12.5756 70.5722 11.9463C70.2202 11.317 70.0442 10.597 70.0442 9.7863C70.0442 8.97564 70.2202 8.25564 70.5722 7.6263C70.9348 6.99697 71.4255 6.5063 72.0442 6.1543C72.6628 5.8023 73.3775 5.6263 74.1882 5.6263C75.2015 5.6263 76.0548 5.89297 76.7482 6.4263C77.4415 6.94897 77.8842 7.6743 78.0762 8.6023H75.9162C75.8095 8.2183 75.5962 7.91964 75.2762 7.7063C74.9668 7.4823 74.5988 7.3703 74.1722 7.3703C73.6068 7.3703 73.1268 7.58364 72.7322 8.0103C72.3375 8.43697 72.1402 9.02897 72.1402 9.7863C72.1402 10.5436 72.3375 11.1356 72.7322 11.5623C73.1268 11.989 73.6068 12.2023 74.1722 12.2023C74.5988 12.2023 74.9668 12.0956 75.2762 11.8823C75.5962 11.669 75.8095 11.365 75.9162 10.9703H78.0762C77.8842 11.8663 77.4415 12.5863 76.7482 13.1303C76.0548 13.6743 75.2015 13.9463 74.1882 13.9463ZM79.5739 13.7543V2.2343H81.6219V9.0343L84.4379 5.8183H86.8699L83.6219 9.4343L87.3979 13.7543H84.8379L81.6219 9.7703V13.7543H79.5739Z" fill="#05CD99"/>
<rect x="0.304199" y="0.757202" width="16" height="16" rx="8" fill="#05CD99"/>
<g clip-path="url(#clip0_201_1859)">
<path d="M7.12501 10.5059L5.52085 8.90178C5.3421 8.72303 5.05793 8.72303 4.87918 8.90178C4.70043 9.08053 4.70043 9.36469 4.87918 9.54344L6.7996 11.4639C6.97835 11.6426 7.2671 11.6426 7.44585 11.4639L12.3042 6.61011C12.4829 6.43136 12.4829 6.14719 12.3042 5.96844C12.1254 5.78969 11.8413 5.78969 11.6625 5.96844L7.12501 10.5059Z" fill="white"/>
</g>
<defs>
<clipPath id="clip0_201_1859">
<rect width="11" height="11" fill="white" transform="translate(3 3.08093)"/>
</clipPath>
</defs>
</svg>
